<svg xmlns="http://www.w3.org/2000/svg" version="1.1" xmlns:xlink="http://www.w3.org/1999/xlink" xmlns:svgjs="http://svgjs.dev/svgjs" width="1000" height="1051" viewBox="0 0 1000 1051"><g transform="matrix(1,0,0,1,-0.33932341168252833,0.4255060728744411)"><svg viewBox="0 0 235 247" data-background-color="#ffffff" preserveAspectRatio="xMidYMid meet" height="1051" width="1000" xmlns="http://www.w3.org/2000/svg" xmlns:xlink="http://www.w3.org/1999/xlink"><g id="tight-bounds" transform="matrix(1,0,0,1,0.0797410017453899,-0.09999999999999432)"><svg viewBox="0 0 234.8405138601148 247.2" height="247.2" width="234.8405138601148"><g><svg viewBox="0 0 395.52 416.33593110871504" height="247.2" width="234.8405138601148"><g transform="matrix(1,0,0,1,0,246.91009294489245)"><svg viewBox="0 0 395.52 169.42583816382256" height="169.42583816382256" width="395.52"><g><svg viewBox="0 0 395.52 169.42583816382256" height="169.42583816382256" width="395.52"><g><svg viewBox="0 0 395.52 115.6258064516129" height="115.6258064516129" width="395.52"><g transform="matrix(1,0,0,1,0,0)"><svg width="395.52" viewBox="1.7999999523162842 -35.54999923706055 123.98999786376953 36.25" height="115.6258064516129" data-palette-color="#8abe53"><path d="M1.8-34.4L1.8-35.4Q3.05-35.35 5-35.3 6.95-35.25 8.9-35.25L8.9-35.25Q11.35-35.25 13.55-35.3 15.75-35.35 16.65-35.35L16.65-35.35Q23.35-35.35 26.63-33 29.9-30.65 29.9-26.65L29.9-26.65Q29.9-25 29.25-23.28 28.6-21.55 27-20.1 25.4-18.65 22.63-17.73 19.85-16.8 15.55-16.8L15.55-16.8 10.75-16.8 10.75-17.8 15.05-17.8Q18.2-17.8 19.88-18.93 21.55-20.05 22.13-21.93 22.7-23.8 22.7-26.1L22.7-26.1Q22.7-30.05 21.15-32.23 19.6-34.4 15.8-34.4L15.8-34.4Q13.75-34.4 13.13-33.55 12.5-32.7 12.5-30.1L12.5-30.1 12.5-5.3Q12.5-3.5 12.8-2.6 13.1-1.7 13.93-1.4 14.75-1.1 16.35-1L16.35-1 16.35 0Q15.1-0.1 13.15-0.13 11.2-0.15 9.2-0.15L9.2-0.15Q6.95-0.15 5-0.13 3.05-0.1 1.8 0L1.8 0 1.8-1Q3.45-1.1 4.28-1.4 5.1-1.7 5.38-2.6 5.65-3.5 5.65-5.3L5.65-5.3 5.65-30.1Q5.65-31.95 5.38-32.83 5.1-33.7 4.28-34.02 3.45-34.35 1.8-34.4L1.8-34.4ZM10.85-16.8L10.75-17.65Q13.1-17.55 14.68-17.43 16.25-17.3 17.38-17.2 18.5-17.1 19.4-16.95L19.4-16.95Q23.55-16.55 25.53-15.03 27.5-13.5 28.15-10.4L28.15-10.4 29.3-5.25Q29.75-3.2 30.28-2.33 30.8-1.45 31.8-1.5L31.8-1.5Q32.5-1.5 33-1.88 33.5-2.25 34-2.9L34-2.9 34.7-2.3Q33.45-0.75 32.05-0.03 30.65 0.7 28.5 0.7L28.5 0.7Q26.1 0.7 24.45-0.43 22.8-1.55 22.2-4.7L22.2-4.7 21.25-9.7Q20.85-11.8 20.33-13.4 19.8-15 18.9-15.9 18-16.8 16.25-16.8L16.25-16.8 10.85-16.8ZM62.2-35.4L62.2-35.4 62.2-34.4Q61.2-34.1 60.1-32.88 59-31.65 57.7-29.1L57.7-29.1 48.05-9.95 46.2-9.95 34.5-31.55Q33.55-33.3 32.85-33.83 32.15-34.35 31.6-34.35L31.6-34.35 31.6-35.4Q32.8-35.35 34.12-35.27 35.45-35.2 37-35.2L37-35.2Q39-35.2 41.3-35.25 43.6-35.3 45.6-35.4L45.6-35.4 45.6-34.35Q44.35-34.35 43.35-34.15 42.35-33.95 42-33.3 41.65-32.65 42.25-31.4L42.25-31.4 50.35-15.9 49.15-14.5 54.85-25.8Q56.5-29.1 56.57-30.95 56.65-32.8 55.52-33.58 54.4-34.35 52.35-34.4L52.35-34.4 52.35-35.4Q54-35.35 55.47-35.3 56.95-35.25 58.4-35.25L58.4-35.25Q59.6-35.25 60.52-35.3 61.45-35.35 62.2-35.4ZM48.05-12.45L51.1-17 51.1-5.3Q51.1-3.5 51.4-2.6 51.7-1.7 52.52-1.4 53.35-1.1 54.95-1L54.95-1 54.95 0Q53.7-0.1 51.7-0.13 49.7-0.15 47.7-0.15L47.7-0.15Q45.55-0.15 43.57-0.13 41.6-0.1 40.4 0L40.4 0 40.4-1Q42.05-1.1 42.87-1.4 43.7-1.7 43.97-2.6 44.25-3.5 44.25-5.3L44.25-5.3 44.25-15.55 48.05-12.45ZM77.45-35.55L77.45-35.55 89.6-4.2Q90.35-2.4 91.22-1.73 92.1-1.05 92.85-1L92.85-1 92.85 0Q91.55-0.1 89.72-0.13 87.9-0.15 86-0.15L86-0.15Q83.8-0.15 81.9-0.13 80-0.1 78.8 0L78.8 0 78.8-1Q81.35-1.1 82.05-1.88 82.75-2.65 81.75-5.2L81.75-5.2 72.95-28.95 73.85-30.05 65.85-9.3Q64.55-6 64.6-4.23 64.65-2.45 65.8-1.75 66.95-1.05 69.05-1L69.05-1 69.05 0Q67.45-0.1 65.95-0.13 64.45-0.15 62.95-0.15L62.95-0.15Q61.85-0.15 60.87-0.13 59.9-0.1 59.15 0L59.15 0 59.15-1Q60.25-1.25 61.32-2.3 62.4-3.35 63.4-5.95L63.4-5.95 74.85-35.55Q75.45-35.5 76.15-35.5 76.85-35.5 77.45-35.55ZM67.4-14.4L81.8-14.4 81.8-13.4 66.9-13.4 67.4-14.4ZM125.79-35.4L125.79-35.4 125.79-34.4Q124.19-34.25 123.34-33.68 122.49-33.1 122.22-31.88 121.94-30.65 121.94-28.4L121.94-28.4 121.94 0.15Q121.49 0.1 120.97 0.1 120.44 0.1 119.84 0.15L119.84 0.15 98.39-29 98.39-7.4Q98.39-5 98.69-3.68 98.99-2.35 100.02-1.78 101.04-1.2 103.14-1L103.14-1 103.14 0Q102.19-0.1 100.69-0.13 99.19-0.15 97.84-0.15L97.84-0.15Q96.64-0.15 95.42-0.13 94.19-0.1 93.39 0L93.39 0 93.39-1Q95.04-1.2 95.87-1.75 96.69-2.3 96.97-3.55 97.24-4.8 97.24-7L97.24-7 97.24-30.1Q97.24-31.95 96.97-32.83 96.69-33.7 95.87-34.02 95.04-34.35 93.39-34.4L93.39-34.4 93.39-35.4Q94.19-35.35 95.42-35.3 96.64-35.25 97.84-35.25L97.84-35.25Q98.99-35.25 100.09-35.3 101.19-35.35 102.04-35.4L102.04-35.4 120.79-10.45 120.79-28Q120.79-30.45 120.49-31.75 120.19-33.05 119.19-33.65 118.19-34.25 116.04-34.4L116.04-34.4 116.04-35.4Q116.99-35.35 118.52-35.3 120.04-35.25 121.34-35.25L121.34-35.25Q122.59-35.25 123.82-35.3 125.04-35.35 125.79-35.4Z" opacity="1" transform="matrix(1,0,0,1,0,0)" fill="#8abe53" class="undefined-text-0" data-fill-palette-color="primary" id="text-0"></path></svg></g></svg></g><g transform="matrix(1,0,0,1,75.54432,142.92228433548388)"><svg viewBox="0 0 244.43135999999998 26.5035538283387" height="26.5035538283387" width="244.43135999999998"><g transform="matrix(1,0,0,1,0,0)"><svg width="244.43135999999998" viewBox="0.9800000190734863 -41.33000183105469 502.7406311035156 54.51000213623047" height="26.5035538283387" data-palette-color="#8abe53"><path d="M27.49-0.59L27.49-0.59Q23.73 0.73 20.06 0.73 16.38 0.73 13.64-0.33 10.89-1.39 8.79-3.42L8.79-3.42Q4.32-7.69 3.47-15.26L3.47-15.26Q3.1-18.43 0.98-19.46L0.98-19.46Q3.1-20.46 3.49-23.67 3.88-26.88 5.35-29.6 6.81-32.32 9.11-34.23L9.11-34.23Q13.79-38.09 20.85-38.09L20.85-38.09Q25.71-38.09 29-35.86L29-35.86Q32.06-33.81 32.79-30.52L32.79-30.52Q33.18-28.66 33.79-28.22L33.79-28.22Q34.03-28.03 34.4-27.86L34.4-27.86Q32.96-25.71 31.47-26.07L31.47-26.07Q31.1-26.15 30.79-26.27L30.79-26.27Q30.25-25.2 29.39-24.49 28.54-23.78 27.5-23.67 26.46-23.56 26.2-23.8L26.2-23.8Q26.81-24.71 26.81-26.1L26.81-26.1Q26.81-26.27 26.73-26.54L26.73-26.54Q26.61-26.49 26.51-26.49 26.42-26.49 26.15-26.48 25.88-26.46 25.39-26.66 24.9-26.86 24.49-27.2L24.49-27.2Q23.56-27.93 23.51-28.81L23.51-28.81Q23.51-29 23.58-29.2L23.58-29.2Q25.1-28.74 26.46-29.88L26.46-29.88Q27.39-30.69 27.34-31.59 27.29-32.5 26.84-33.09 26.39-33.69 25.56-34.13L25.56-34.13Q23.71-35.11 20.8-35.11L20.8-35.11Q14.18-35.11 14.18-27.44L14.18-27.44 14.18-23.39Q14.18-20.63 16.87-19.46L16.87-19.46Q14.18-18.16 14.18-15.23L14.18-15.23 14.18-8.69Q14.18-5.59 15.36-4.09 16.53-2.59 19.07-2.59L19.07-2.59Q22.07-2.59 23.05-5.27L23.05-5.27Q23.36-6.15 23.36-7.3L23.36-7.3 23.36-12.94Q22.9-13.4 22.07-13.4 21.24-13.4 20.7-12.99L20.7-12.99Q20.43-13.26 20.43-14.01 20.43-14.77 21.07-15.44 21.7-16.11 23.01-16.11 24.32-16.11 25.17-15.41L25.17-15.41Q26.34-16.11 27.69-16.11 29.03-16.11 30.13-15.38L30.13-15.38Q31.15-16.11 32.06-16.11 32.96-16.11 33.47-15.94 33.98-15.77 34.38-15.48L34.38-15.48Q35.25-14.82 35.25-13.84L35.25-13.84Q35.25-13.26 34.99-12.99L34.99-12.99Q34.42-13.4 33.54-13.4 32.67-13.4 31.84-11.74L31.84-11.74 31.84-3.74Q32.3-2.22 33.86-2.22L33.86-2.22Q34.45-2.22 34.99-2.64L34.99-2.64Q35.25-2.27 35.25-1.78L35.25-1.78Q35.25-0.78 34.16-0.15 33.06 0.49 31.02 0.49 28.98 0.49 27.49-0.59ZM8.98-6.47L8.98-6.47Q9.35-6.62 9.35-6.98L9.35-6.98Q9.35-7.52 8.84-8.68 8.33-9.84 7.9-12.61 7.47-15.38 7.47-19.04L7.47-19.04Q7.47-24.98 8.91-29.17L8.91-29.17Q9.08-29.79 9.08-30.1 9.08-30.42 8.76-30.52L8.76-30.52Q7.62-29.08 7.13-27.66L7.13-27.66Q6.23-25.07 5.69-20.65L5.69-20.65Q5.62-20.02 4.25-19.46L4.25-19.46Q5.62-18.85 5.69-18.21L5.69-18.21Q6.57-10.64 7.91-8.11L7.91-8.11Q8.4-7.2 8.98-6.47ZM25.88-12.21L25.88-5Q27.29-5.88 27.29-8.11L27.29-8.11 27.29-9.5Q27.29-11.57 25.88-12.21L25.88-12.21ZM31.57-5.05L31.64-4.57 31.57-5.05ZM42.67-0.29L42.67-0.29Q41.55 0.49 40.11 0.49 38.67 0.49 38.02-0.18 37.38-0.85 37.38-1.46L37.38-1.46Q37.38-2.27 37.64-2.64L37.64-2.64Q38.18-2.22 39.01-2.22L39.01-2.22Q40.57-2.22 41.04-3.74L41.04-3.74 41.04-11.13Q41.04-12.26 40.6-12.79L40.6-12.79Q39.82-13.75 38.06-14.6L38.06-14.6Q41.04-15.97 41.04-18.8L41.04-18.8 41.04-21.36Q41.04-23.44 39.62-23.61L39.62-23.61Q39.21-23.66 38.57-23.66 37.94-23.66 37.4-23.24L37.4-23.24Q37.06-23.71 37.06-24.21 37.06-24.71 37.31-25.33 37.57-25.95 38.11-26.51L38.11-26.51Q39.38-27.83 41.07-27.83 42.77-27.83 43.89-27.29L43.89-27.29Q45.24-28.81 46.77-28.81L46.77-28.81Q49.17-28.81 49.17-26.17L49.17-26.17 49.17-22.83Q51.61-28.83 56.93-28.83L56.93-28.83Q59.32-28.83 60.81-27.37L60.81-27.37Q62.35-25.88 62.35-23.24L62.35-23.24 62.35-22.9Q62.35-22.73 62.3-22.2 62.25-21.68 62.34-21.14 62.42-20.61 62.62-20.26L62.62-20.26Q62.89-19.75 63.62-19.46L63.62-19.46Q63.45-18.8 62.83-18.27 62.2-17.75 61.45-17.75L61.45-17.75 60.98-17.75Q60.03-16.55 58.32-16.06L58.32-16.06Q57.83-15.92 57.26-15.92 56.69-15.92 56.26-16.17 55.83-16.43 55.78-16.72L55.78-16.72Q56.25-16.94 56.25-17.6L56.25-17.6 56.25-17.72Q56.05-17.68 55.91-17.68L55.91-17.68 55.66-17.68Q54.86-17.68 54.21-18.29 53.56-18.9 53.37-19.82L53.37-19.82Q54.69-19.78 55.66-20.8L55.66-20.8Q56.54-21.7 56.54-22.66L56.54-22.66Q56.54-24.9 54.59-24.9L54.59-24.9Q52.9-24.9 51.19-22.22L51.19-22.22Q49.58-19.75 49.17-17.11L49.17-17.11 49.17-3.91Q49.44-3.05 50-2.64 50.56-2.22 51.54-2.22 52.51-2.22 53.05-2.64L53.05-2.64Q53.32-2.27 53.32-1.56 53.32-0.85 52.67-0.18 52.02 0.49 50.5 0.49 48.97 0.49 47.58-0.34L47.58-0.34Q46.6 0.49 45.21 0.49 43.82 0.49 42.67-0.29ZM44.79-11.88Q44.8-12.7 44.81-13.26 44.82-13.82 44.82-14.16L44.82-14.16 44.82-14.82Q44.82-15.19 44.81-15.76 44.8-16.33 44.79-17.05 44.77-17.77 44.75-18.46L44.75-18.46Q44.6-21 44.2-21.72 43.8-22.44 43.38-22.71L43.38-22.71 43.38-21.12Q43.38-17.02 43.2-16.3 43.02-15.58 42.61-15.22 42.21-14.87 41.43-14.6L41.43-14.6Q42.89-14.09 43.09-13.35L43.09-13.35Q43.38-12.18 43.38-8.08L43.38-8.08 43.38-6.49Q44.5-7.23 44.65-9.47L44.65-9.47Q44.77-11.06 44.79-11.88ZM70.6-2.73Q69.06-4.3 68.17-6.45 67.28-8.59 67.08-10.13 66.89-11.67 66.76-12.11 66.62-12.55 66.3-12.94L66.3-12.94Q65.67-13.75 63.98-14.58L63.98-14.58Q66.11-15.53 66.69-17.63L66.69-17.63Q66.87-18.21 66.96-18.8L66.96-18.8Q67.6-23.17 71.19-26.11 74.78-29.05 79.56-29.05L79.56-29.05Q84.54-29.05 88.13-26.07L88.13-26.07Q91.62-23.17 92.26-18.8L92.26-18.8Q92.48-17.26 92.91-16.55L92.91-16.55Q93.75-15.26 95.23-14.58L95.23-14.58Q93.57-13.77 93.09-13.16L93.09-13.16Q92.43-12.3 92.26-11.13L92.26-11.13Q91.47-5.37 88.25-2.38 85.03 0.61 79.66 0.61L79.66 0.61Q73.9 0.61 70.6-2.73L70.6-2.73ZM83.76-19.51Q83.76-25.61 79.61-25.61 75.46-25.61 75.46-19.51L75.46-19.51 75.46-8.69Q75.46-2.83 79.58-2.83L79.58-2.83Q83.76-2.83 83.76-8.69L83.76-8.69 83.76-19.51ZM86.1-22.73L86.1-6.47Q87.32-6.93 87.45-9.67L87.45-9.67Q87.59-12.4 87.59-13.73 87.59-15.06 87.58-15.95 87.57-16.85 87.54-17.8L87.54-17.8Q87.45-21.36 86.98-21.95 86.52-22.53 86.1-22.73L86.1-22.73ZM71.48-6.47L71.48-6.47Q71.82-6.74 71.82-7.08L71.82-7.08Q71.82-7.62 71.6-8.45L71.6-8.45Q70.6-12.28 70.6-13.78 70.6-15.28 70.7-16.13 70.8-16.97 70.94-17.82L70.94-17.82Q71.26-19.48 71.6-20.75L71.6-20.75Q71.82-21.58 71.82-21.88L71.82-21.88Q71.82-22.46 71.48-22.73L71.48-22.73Q70.45-21.51 69.92-19.46 69.38-17.41 69.04-15.84L69.04-15.84Q68.92-15.19 67.6-14.58L67.6-14.58Q68.92-13.96 69.04-13.35L69.04-13.35Q69.94-9.23 70.53-8.11 71.11-6.98 71.48-6.47ZM143.23-25.17L143.23-25.17Q142.64-25.51 141.73-25.51 140.81-25.51 140.37-25.44 139.93-25.37 139.54-25.17L139.54-25.17Q138.71-24.76 138.35-23.63L138.35-23.63 136.59-18.51Q136.32-17.7 136.32-17.1 136.32-16.5 136.53-16.14 136.74-15.77 137.03-15.43L137.03-15.43Q137.69-14.72 138.13-14.6L138.13-14.6Q136.22-14.09 135.61-13.6L135.61-13.6Q134.71-12.92 134.25-11.72L134.25-11.72 130.75-1.15Q129.95 0.88 128.19 0.88L128.19 0.88Q127.68 0.88 127.09 0.71L127.09 0.71 118.94-19.53 113.22-1.15Q112.81 0.17 111.52 0.71L111.52 0.71Q111.1 0.88 110.62 0.88 110.15 0.88 109.56 0.71L109.56 0.71 104.39-11.57Q103.75-13.13 101.46-14.04L101.46-14.04 100.04-14.58Q101.8-16.09 101.8-16.65 101.8-17.21 101.68-17.7 101.56-18.19 101.3-18.92 101.04-19.65 100.65-20.7L100.65-20.7 99.65-23.24Q99.06-24.71 98.7-25.02L98.7-25.02Q98.06-25.61 97.09-25.61 96.11-25.61 95.57-25.2L95.57-25.2Q95.31-25.46 95.31-26.25 95.31-27.03 95.96-27.67 96.62-28.32 98.05-28.32 99.48-28.32 100.7-27.44L100.7-27.44Q101.7-28.32 103.18-28.32 104.66-28.32 105.78-27.49L105.78-27.49Q106.85-28.32 108.24-28.32 109.64-28.32 110.42-27.67 111.2-27.03 111.2-26.05L111.2-26.05Q111.2-25.46 110.83-25.1L110.83-25.1Q110.25-25.54 109.75-25.54 109.25-25.54 109-25.48 108.76-25.42 108.56-25.27L108.56-25.27Q108.07-24.93 108.12-24.32L108.12-24.32 113.13-11.3 117.2-23.8Q116.37-25.61 115.03-25.61L115.03-25.61Q114.23-25.61 113.66-25.2L113.66-25.2Q113.4-25.46 113.4-26.25 113.4-27.03 114.16-27.67 114.93-28.32 116.28-28.32 117.62-28.32 118.6-27.49L118.6-27.49Q119.65-28.32 121.04-28.32 122.43-28.32 123.53-27.51L123.53-27.51Q124.48-28.32 125.53-28.32 126.58-28.32 127.15-28.19 127.73-28.05 128.14-27.78L128.14-27.78Q129.07-27.25 129.07-26.29L129.07-26.29Q129.07-25.71 128.7-25.34L128.7-25.34Q128.12-25.78 127.51-25.78 126.9-25.78 126.54-25.32 126.19-24.85 126.19-24.28 126.19-23.71 126.34-23.24L126.34-23.24 126.29-23.36 130.75-11.3 135-23.88Q134.93-25.63 132.85-25.63L132.85-25.63Q131.88-25.63 131.07-25.17L131.07-25.17Q130.8-25.61 130.8-26.35 130.8-27.1 131.46-27.71 132.12-28.32 133.28-28.32 134.44-28.32 135.27-27.54L135.27-27.54Q136.15-28.32 137.27-28.32 138.4-28.32 139.25-27.61L139.25-27.61Q140.15-28.32 141.22-28.32 142.28-28.32 142.88-27.73 143.47-27.15 143.47-26.34 143.47-25.54 143.23-25.17ZM108.37-23.41L108.15-24.02Q108.22-23.75 108.37-23.41L108.37-23.41ZM125.7-12.18L121.33-22.73Q120.99-22.24 120.99-21.56 120.99-20.87 121.12-20.31 121.26-19.75 121.48-19.12 121.7-18.48 121.99-17.77L121.99-17.77 122.53-16.36 126.85-6.47Q127.07-6.71 127.07-7.3 127.07-7.89 127.01-8.23 126.95-8.57 126.79-9.08 126.63-9.59 126.36-10.35L126.36-10.35 125.7-12.18ZM110.27-6.47L103.56-22.73Q103.22-22.51 103.22-21.88 103.22-21.24 103.24-20.94 103.26-20.63 103.36-20.21L103.36-20.21Q103.56-19.34 104.17-17.88 104.78-16.43 104.79-16.11 104.8-15.8 104.73-15.59 104.66-15.38 104.51-15.19L104.51-15.19Q104.22-14.7 103.8-14.55L103.8-14.55Q105.51-14.21 105.93-13.48L105.93-13.48 106.27-12.82Q106.41-12.5 106.61-12.01L106.61-12.01 107.95-9.01Q108.46-7.89 108.95-7.28 109.44-6.67 110.27-6.47L110.27-6.47ZM150.41-32.3L150.41-32.3Q149.16-32.3 148-32.96 146.84-33.62 146.23-34.72L146.23-34.72Q145.57-35.84 144.47-36.43L144.47-36.43Q144.13-36.6 143.69-36.79L143.69-36.79 144.52-37.3Q145.69-38.04 146.25-39.09 146.82-40.14 147.95-40.73 149.09-41.33 150.41-41.33L150.41-41.33Q153.14-41.33 154.36-39.04L154.36-39.04Q155.19-37.52 156.92-36.79L156.92-36.79Q156.56-36.57 156.2-36.4 155.85-36.23 155.53-36.01L155.53-36.01Q154.82-35.52 154.27-34.57 153.73-33.62 152.69-32.96 151.65-32.3 150.41-32.3ZM149.11-35.29Q148.96-35.55 148.88-35.9 148.79-36.25 148.79-37.16 148.79-38.06 149.72-39.45L149.72-39.45Q148.82-39.45 148.45-39.12 148.09-38.79 147.9-38.56 147.72-38.33 147.59-38.1 147.45-37.87 147.26-37.6L147.26-37.6Q146.79-36.94 146.5-36.79L146.5-36.79Q146.89-36.57 147.22-36.1 147.55-35.62 147.99-35.11L147.99-35.11Q148.65-34.3 149.72-34.3L149.72-34.3Q149.57-34.57 149.42-34.8 149.26-35.03 149.11-35.29ZM147.96-0.29L147.96-0.29Q146.84 0.49 145.41 0.49 143.98 0.49 143.29-0.15 142.59-0.78 142.59-1.37L142.59-1.37Q142.59-2.17 142.93-2.64L142.93-2.64Q143.47-2.22 144.52-2.22 145.57-2.22 146.33-3.59L146.33-3.59 146.33-11.38Q146.33-12.45 145.89-12.94L145.89-12.94Q145.18-13.67 143.35-14.58L143.35-14.58Q145.06-15.36 145.52-15.82L145.52-15.82Q146.33-16.63 146.33-17.8L146.33-17.8 146.33-21.36Q146.33-23.44 144.91-23.61L144.91-23.61Q144.5-23.66 143.86-23.66 143.23-23.66 142.69-23.24L142.69-23.24Q142.35-23.71 142.35-24.21 142.35-24.71 142.6-25.33 142.86-25.95 143.4-26.51L143.4-26.51Q144.67-27.83 146.33-27.83 147.99-27.83 149.33-27.25L149.33-27.25Q150.53-28.81 152.07-28.81L152.07-28.81Q154.58-28.81 154.58-26.17L154.58-26.17 154.58-17.8Q154.58-16.63 155.09-16.11L155.09-16.11Q155.85-15.36 157.56-14.58L157.56-14.58Q155.73-13.67 155.26-13.21L155.26-13.21Q154.58-12.45 154.58-11.38L154.58-11.38 154.58-3.52Q155.39-2.22 156.41-2.22 157.44-2.22 157.97-2.64L157.97-2.64Q158.32-2.17 158.32-1.48 158.32-0.78 157.62-0.15 156.92 0.49 155.53 0.49 154.14 0.49 152.94-0.29L152.94-0.29Q151.94 0.49 150.53 0.49 149.11 0.49 147.96-0.29ZM150.08-11.87Q150.09-12.7 150.1-13.26 150.11-13.82 150.11-14.16L150.11-14.16 150.11-14.82Q150.11-15.19 150.1-15.77 150.09-16.36 150.08-17.07 150.06-17.77 150.04-18.46L150.04-18.46Q149.94-20.14 149.79-20.78L149.79-20.78Q149.5-22.19 148.67-22.73L148.67-22.73 148.67-21.14Q148.67-17.02 148.49-16.3 148.31-15.58 147.9-15.22 147.5-14.87 146.72-14.6L146.72-14.6Q148.18-14.09 148.38-13.35L148.38-13.35Q148.67-12.18 148.67-8.06L148.67-8.06 148.67-6.47Q149.79-7.2 149.94-9.47L149.94-9.47Q150.06-11.04 150.08-11.87ZM165.51-0.29L165.51-0.29Q164.39 0.49 162.95 0.49 161.51 0.49 160.86-0.18 160.22-0.85 160.22-1.46L160.22-1.46Q160.22-2.27 160.49-2.64L160.49-2.64Q161.02-2.22 161.85-2.22L161.85-2.22Q163.42-2.22 163.88-3.74L163.88-3.74 163.88-11.33Q163.88-12.4 163.42-12.89L163.42-12.89Q162.71-13.7 160.9-14.58L160.9-14.58Q162.61-15.36 163.07-15.82L163.07-15.82Q163.88-16.63 163.88-17.8L163.88-17.8 163.88-21.36Q163.88-23.44 162.46-23.61L162.46-23.61Q162.05-23.66 161.41-23.66 160.78-23.66 160.24-23.24L160.24-23.24Q159.9-23.71 159.9-24.21 159.9-24.71 160.16-25.33 160.41-25.95 160.93-26.51L160.93-26.51Q162.22-27.83 163.92-27.83 165.61-27.83 166.74-27.29L166.74-27.29Q168.08-28.81 169.47-28.81 170.86-28.81 171.4-28.16 171.94-27.51 171.94-26.17L171.94-26.17 171.94-23.88Q173.21-26.15 175.4-27.48 177.6-28.81 180.07-28.81 182.53-28.81 184.03-28.16 185.53-27.51 186.51-26.32L186.51-26.32Q188.42-23.95 188.42-19.43L188.42-19.43 188.42-17.82Q188.42-16.65 188.93-16.14L188.93-16.14Q189.68-15.36 191.39-14.58L191.39-14.58Q189.56-13.67 189.1-13.21L189.1-13.21Q188.42-12.45 188.42-11.38L188.42-11.38 188.42-3.74Q188.88-2.22 190.44-2.22L190.44-2.22Q191.27-2.22 191.81-2.64L191.81-2.64Q192.08-2.27 192.08-1.56 192.08-0.85 191.43-0.18 190.78 0.49 189.44 0.49 188.1 0.49 187-0.27L187-0.27Q186.02 0.49 184.72 0.49 183.41 0.49 182.38-0.24L182.38-0.24Q181.31 0.49 180.09 0.49 178.87 0.49 178.16-0.12 177.45-0.73 177.45-1.88L177.45-1.88Q177.45-2.42 177.82-2.73L177.82-2.73Q178.38-2.29 178.94-2.29L178.94-2.29Q180.02-2.29 180.48-3.49L180.48-3.49 180.48-18.04Q180.48-22.78 178.16-23.54L178.16-23.54Q177.4-23.78 176.53-23.78 175.65-23.78 174.89-23.43 174.13-23.07 173.52-22.44L173.52-22.44Q172.18-21.02 171.94-19.07L171.94-19.07 171.94-3.49Q172.4-2.29 173.47-2.29L173.47-2.29Q174.04-2.29 174.6-2.73L174.6-2.73Q174.96-2.42 174.96-1.57 174.96-0.73 174.26-0.12 173.55 0.49 172.39 0.49 171.23 0.49 170.28-0.24L170.28-0.24Q169.35 0.49 168.01 0.49 166.66 0.49 165.51-0.29ZM182.82-15.77L182.82-6.47Q184.05-6.93 184.17-9.67L184.17-9.67Q184.31-12.4 184.31-14.82 184.31-17.24 184.12-18.81 183.92-20.39 183.56-21.28 183.19-22.17 182.69-22.57 182.19-22.97 181.6-23.27L181.6-23.27Q182.53-21.07 182.68-19.26 182.82-17.46 182.82-15.77L182.82-15.77ZM167.63-11.87Q167.64-12.67 167.65-13.22 167.66-13.77 167.66-14.11 167.66-14.45 167.66-14.81 167.66-15.16 167.65-15.75 167.64-16.33 167.63-17.04 167.61-17.75 167.57-18.43L167.57-18.43Q167.49-20.12 167.35-20.75L167.35-20.75Q167.05-22.17 166.22-22.71L166.22-22.71 166.22-21.12Q166.22-17.02 166.04-16.3 165.86-15.58 165.45-15.21 165.05-14.84 164.27-14.58L164.27-14.58Q165.73-14.06 165.93-13.35L165.93-13.35Q166.22-12.18 166.22-8.08L166.22-8.08 166.22-6.49Q167.35-7.23 167.52-9.47L167.52-9.47Q167.61-11.06 167.63-11.87ZM197.81 0.95L197.81 0.95Q196.05-0.66 196.05-3.05L196.05-3.05Q196.05-6.62 200.28-8.91L200.28-8.91Q197.52-10.84 196.25-15.01L196.25-15.01Q195.83-16.31 195.42-16.77L195.42-16.77Q194.81-17.5 193.32-18.24L193.32-18.24Q194.54-18.8 195.19-19.68 195.83-20.56 196.31-21.97 196.79-23.39 197.65-24.68 198.52-25.98 199.89-26.95L199.89-26.95Q202.89-29.05 207.63-29.05L207.63-29.05Q209.14-29.05 210.78-28.74L210.78-28.74Q211.12-31.4 213.14-33.25L213.14-33.25Q215.15-35.13 217.83-35.13L217.83-35.13Q220.98-35.13 223.13-33.5L223.13-33.5Q224.3-32.62 225.47-32.84L225.47-32.84Q225.57-30.88 223.96-30.32L223.96-30.32Q223.69-27.03 221.1-27.03L221.1-27.03Q220.08-27.03 219.86-27.17L219.86-27.17Q220.22-27.49 220.22-27.99 220.22-28.49 219.81-28.86L219.81-28.86Q219.3-27.91 217.51-27.91L217.51-27.91Q216.54-27.91 215.98-28.83L215.98-28.83Q216.9-29.13 217.44-29.72 217.98-30.32 217.98-30.83L217.98-30.83Q217.98-32.18 216.56-32.18L216.56-32.18Q213.83-32.18 213.36-27.93L213.36-27.93Q217.81-26.03 219.03-21.95L219.03-21.95Q219.83-19.19 222.01-18.24L222.01-18.24Q220.1-17.29 219.49-16.11L219.49-16.11Q219.25-15.65 219.05-15.01L219.05-15.01Q217.73-10.86 214.93-8.9 212.12-6.93 207.7-6.93L207.7-6.93Q204.89-6.93 202.82-7.62L202.82-7.62Q202.01-7.1 202.01-6.48 202.01-5.86 202.26-5.43 202.5-5 203.13-4.66L203.13-4.66Q204.38-4 207.87-3.49L207.87-3.49Q209.46-3.17 211.14-5.54L211.14-5.54Q211.24-4.3 211.7-3.67 212.17-3.05 212.73-2.98L212.73-2.98Q219.47-1.98 221.44 1.42L221.44 1.42Q222.13 2.56 222.13 4.36 222.13 6.15 220.98 7.85 219.83 9.55 217.88 10.74L217.88 10.74Q213.83 13.18 207.92 13.18L207.92 13.18Q200.99 13.18 197.32 10.91L197.32 10.91Q194.17 8.94 194.17 5.86L194.17 5.86Q194.17 3.81 196.25 1.98L196.25 1.98Q196.93 1.39 197.81 0.95ZM205.33-11.38Q205.87-10.62 206.41-10.41 206.94-10.21 207.66-10.21 208.38-10.21 208.92-10.41 209.46-10.62 209.82-11.13L209.82-11.13Q210.53-12.13 210.53-14.5L210.53-14.5 210.53-21.26Q210.53-23.63 209.99-24.39 209.46-25.15 208.92-25.35 208.38-25.56 207.66-25.56 206.94-25.56 206.41-25.35 205.87-25.15 205.53-24.66L205.53-24.66Q204.79-23.63 204.79-21.26L204.79-21.26 204.79-14.5Q204.79-12.13 205.33-11.38ZM212.9-24.71L212.9-11.55Q214.02-11.94 214.19-13.96L214.19-13.96Q214.36-15.87 214.36-18.24L214.36-18.24Q214.36-21.9 214.17-22.92L214.17-22.92Q213.88-24.29 212.9-24.71L212.9-24.71ZM200.18-11.55L200.18-11.55Q200.67-11.91 200.67-12.4L200.67-12.4Q200.67-13.04 200.5-13.62L200.5-13.62Q199.84-15.87 199.84-18.24L199.84-18.24Q199.84-20.58 200.5-22.83L200.5-22.83Q200.67-23.41 200.67-23.75L200.67-23.75 200.67-24.34Q200.67-24.56 200.47-24.71L200.47-24.71Q199.47-23.49 199.02-21.92 198.57-20.36 198.3-19.17L198.3-19.17Q198.2-18.8 196.93-18.24L196.93-18.24Q198.23-17.6 198.3-17.29L198.3-17.29 198.79-15.23Q199.42-12.65 200.18-11.55ZM198.94-2.86L198.94-2.86Q198.72-2.64 198.72-2.22L198.72-2.22Q198.81 0.42 206.24 1.76L206.24 1.76Q207.09 1.95 207.46 3.61L207.46 3.61Q207.58 3.08 208.42 2.72 209.26 2.37 209.56 2.39L209.56 2.39Q213.24 2.83 214.54 3.22L214.54 3.22Q216.83 3.93 217.88 5.32L217.88 5.32Q218.17 4.98 218.17 4.44 218.17 3.91 217.64 3.36 217.1 2.81 215.88 2.39L215.88 2.39Q213.78 1.64 210.19 1.22 206.6 0.81 205.15 0.49 203.7 0.17 202.48-0.29L202.48-0.29Q199.81-1.34 198.94-2.86ZM200.25 2.51L200.25 2.51Q198.52 3.27 198.52 5.35L198.52 5.35Q198.52 7.01 201.03 8.35L201.03 8.35Q203.84 9.86 208.29 9.86L208.29 9.86Q213.75 9.86 215.39 7.98L215.39 7.98Q215.85 7.47 215.85 6.9 215.85 6.32 215.3 5.88 214.76 5.44 213.88 5.18L213.88 5.18Q212.58 4.74 209.8 4.42L209.8 4.42Q208.46 4.27 206.48 6.4L206.48 6.4Q206.48 5.03 206.03 4.42 205.58 3.81 205.14 3.76L205.14 3.76Q202.3 3.39 200.25 2.51ZM247.49-1.71L247.49-1.71Q244.83 0.49 242.07 0.49L242.07 0.49Q239.6 0.49 239.04-0.15L239.04-0.15Q239.58-0.81 239.63-2.12 239.68-3.44 239.68-4.59L239.68-4.59 239.68-11.38Q239.68-12.45 239.21-12.94L239.21-12.94Q238.55-13.7 236.7-14.6L236.7-14.6Q238.41-15.38 238.87-15.84L238.87-15.84Q239.68-16.65 239.68-17.8L239.68-17.8 239.68-31.62Q239.68-34.4 237.41-34.4L237.41-34.4Q236.58-34.4 236.04-33.98L236.04-33.98Q235.7-34.45 235.7-34.95 235.7-35.45 235.95-35.91 236.21-36.38 236.72-36.77L236.72-36.77Q237.9-37.6 239.65-37.6 241.41-37.6 242.41-37.38L242.41-37.38Q243.88-39.06 245.41-39.06L245.41-39.06Q247.93-39.06 247.93-36.43L247.93-36.43 247.93-25.98Q249.81-27.86 252.96-28.59L252.96-28.59Q253.91-28.81 255.42-28.81 256.94-28.81 258.6-28.37 260.26-27.93 261.48-26.81L261.48-26.81Q263.92-24.56 264.48-18.8L264.48-18.8Q264.73-15.8 267.46-14.55L267.46-14.55Q265.73-13.7 265.26-13.11L265.26-13.11Q264.63-12.28 264.48-11.13L264.48-11.13Q263.77-5.25 261.45-2.44L261.45-2.44Q258.92 0.61 254.11 0.61L254.11 0.61Q251.64 0.61 249.03-0.73L249.03-0.73Q248.17-1.15 247.49-1.71ZM245.59-6.47L245.59-30.52Q244.58-30.05 244.36-28.76L244.36-28.76Q244.1-27.15 244.1-23.44L244.1-23.44 244.1-19.68 244.1-18.9Q244.12-17.58 244.15-15.32 244.17-13.06 244.19-11.84L244.19-11.84Q244.24-9.2 244.34-8.5 244.44-7.79 244.79-7.21 245.15-6.64 245.59-6.47L245.59-6.47ZM247.93-19.51L247.93-7.74Q247.93-5.76 249.27-4.35L249.27-4.35Q250.54-2.95 252.15-2.95L252.15-2.95Q256.23-2.95 256.23-8.81L256.23-8.81 256.23-19.51Q256.23-24.1 254.11-24.95L254.11-24.95Q253.42-25.24 252.57-25.24L252.57-25.24Q249.44-25.24 248.34-22.24L248.34-22.24Q247.93-21.14 247.93-19.51L247.93-19.51ZM258.57-22.73L258.57-6.47Q259.79-6.93 259.92-9.67L259.92-9.67Q260.06-12.4 260.06-13.73 260.06-15.06 260.05-15.95 260.04-16.85 260.01-17.8L260.01-17.8Q259.92-21.36 259.45-21.95 258.99-22.53 258.57-22.73L258.57-22.73ZM299.27-25.17L299.27-25.17Q298.73-25.51 297.56-25.51L297.56-25.51Q295.22-25.51 294.02-22.34L294.02-22.34 293.26-20.21Q292.43-17.9 292.42-17.04 292.41-16.19 292.71-15.66 293.02-15.14 294.09-14.58L294.09-14.58Q291.46-13.84 290.5-12.11L290.5-12.11Q290.21-11.57 289.99-10.99L289.99-10.99 285.94 0.02Q283.57 6.84 281.54 9.25L281.54 9.25Q279.69 11.47 276.91 11.47L276.91 11.47Q274.78 11.47 272.9 10.11L272.9 10.11Q270.75 8.57 270.75 6.49L270.75 6.49Q270.75 5.2 271.44 4.53 272.12 3.86 272.69 3.86 273.27 3.86 273.49 3.87 273.71 3.88 273.93 3.96L273.93 3.96Q274.37 4.15 274.76 4.83L274.76 4.83Q274.25 5.81 275.42 6.98L275.42 6.98Q276.52 8.13 277.48 8.13 278.44 8.13 279.09 7.76 279.74 7.4 280.25 6.64L280.25 6.64Q281.37 4.98 281.37 1.88L281.37 1.88Q281.37 0.2 280.47-1.83L280.47-1.83Q280.23-2.51 279.88-3.27L279.88-3.27 276.42-11.08Q275.86-12.33 274.72-13.29 273.59-14.26 272.17-14.58L272.17-14.58Q273.85-15.43 273.85-16.82L273.85-16.82Q273.85-17.82 273.05-19.78L273.05-19.78 271.61-23.24Q270.97-24.66 270.56-25.02L270.56-25.02Q269.83-25.61 268.86-25.61 267.9-25.61 267.36-25.2L267.36-25.2Q267.07-25.49 267.06-26.05 267.04-26.61 267.19-26.99 267.34-27.37 267.68-27.66L267.68-27.66Q268.41-28.32 269.79-28.32 271.17-28.32 272.39-27.44L272.39-27.44Q273.39-28.32 274.83-28.32 276.27-28.32 277.37-27.51L277.37-27.51Q278.47-28.32 279.84-28.32 281.2-28.32 282-27.67 282.79-27.03 282.81-26.39L282.81-26.39Q282.84-25.44 282.5-25.1L282.5-25.1Q281.91-25.54 281.28-25.54 280.64-25.54 280.24-25.17 279.84-24.8 279.88-23.97L279.88-23.97 285.52-8.74 290.87-24.39Q290.6-25.63 289.09-25.63L289.09-25.63Q288.14-25.63 287.28-25.17L287.28-25.17Q287.04-25.63 287.05-26.37 287.06-27.1 287.73-27.71 288.41-28.32 289.56-28.32 290.72-28.32 291.55-27.54L291.55-27.54Q292.43-28.32 293.53-28.32 294.63-28.32 295.53-27.64L295.53-27.64Q296.36-28.32 297.38-28.32 298.39-28.32 298.99-27.73 299.59-27.15 299.56-26.51L299.56-26.51Q299.51-25.54 299.27-25.17ZM280.25-12.08L275.76-22.73Q275.2-22.36 275.21-21.8 275.22-21.24 275.26-20.94 275.29-20.63 275.39-20.21L275.39-20.21Q275.61-19.43 276.28-17.91 276.96-16.38 276.99-16 277.03-15.63 276.74-15.17 276.44-14.72 276.03-14.58L276.03-14.58Q277.59-14.28 277.96-13.48L277.96-13.48Q278.13-13.13 278.44-12.4L278.44-12.4 280.1-8.69Q280.59-7.57 281.13-6.47L281.13-6.47Q282.13-7.69 280.25-12.08L280.25-12.08ZM328.1-3.58Q328.56-4.05 328.83-4.8 329.1-5.54 329.1-6.36 329.1-7.18 329-7.86L329-7.86Q329.17-8.23 329.93-8.44 330.69-8.64 330.93-8.64L330.93-8.64Q331.86-8.64 332.42-7.95 332.98-7.25 332.98-6.02 332.98-4.79 332.26-3.59 331.54-2.39 330.34-1.46L330.34-1.46Q327.68 0.61 324.14 0.61L324.14 0.61Q317.4 0.61 315.21-4.49L315.21-4.49Q314.4-6.37 314.4-9.2L314.4-9.2 314.4-12.18Q314.4-13.33 311.89-14.6L311.89-14.6Q314.4-16.04 314.4-18.48L314.4-18.48 314.4-21.36Q314.4-24.15 312.13-24.15L312.13-24.15Q311.3-24.15 310.76-23.73L310.76-23.73Q310.42-24.19 310.42-24.69 310.42-25.2 310.6-25.79 310.79-26.39 311.25-26.88L311.25-26.88Q312.42-28.15 314.89-27.76L314.89-27.76 314.89-28.54Q314.89-31.1 316.18-33.06L316.18-33.06Q317.33-34.81 318.22-34.81 319.11-34.81 319.6-34.2L319.6-34.2Q320.02-36.13 320.7-36.99 321.38-37.84 322.65-37.84L322.65-37.84 322.65-27.66 330.59-27.66Q330.78-27.27 330.78-26.35 330.78-25.44 330.08-24.89 329.37-24.34 328.37-24.34L328.37-24.34 322.65-24.34 322.65-7.81Q322.65-3.56 324.58-2.83L324.58-2.83Q325.14-2.64 325.79-2.64 326.44-2.64 327.04-2.87 327.63-3.1 328.1-3.58ZM316.74-8.06L316.74-6.47Q317.89-7.2 318.04-9.52L318.04-9.52Q318.14-11.18 318.15-12.11 318.16-13.04 318.17-13.61 318.19-14.18 318.19-14.5L318.19-14.5 318.19-15.48Q318.19-16.19 318.17-17.3 318.16-18.41 318.15-19.71 318.14-21.02 318.09-22.22L318.09-22.22Q318.01-25.1 317.87-25.73L317.87-25.73Q317.58-27.15 316.74-27.69L316.74-27.69 316.74-20.07Q316.74-16.67 316.64-16.48 316.53-16.28 316.45-16.02L316.45-16.02Q316.23-15.28 314.79-14.79L314.79-14.79Q316.26-14.28 316.45-13.55L316.45-13.55Q316.74-12.38 316.74-8.06L316.74-8.06ZM339.01-0.29L339.01-0.29Q337.89 0.49 336.46 0.49 335.03 0.49 334.33-0.15 333.64-0.78 333.64-1.37L333.64-1.37Q333.64-2.17 333.98-2.64L333.98-2.64Q334.52-2.22 335.35-2.22L335.35-2.22Q336.76-2.22 337.37-3.86L337.37-3.86 337.37-11.38Q337.37-12.6 336.91-13.04L336.91-13.04Q336.35-13.62 334.39-14.58L334.39-14.58Q336.1-15.36 336.57-15.82L336.57-15.82Q337.37-16.63 337.37-17.8L337.37-17.8 337.37-31.62Q337.37-34.4 335.1-34.4L335.1-34.4Q334.27-34.4 333.73-33.98L333.73-33.98Q333.39-34.45 333.39-34.95 333.39-35.45 333.65-35.91 333.91-36.38 334.42-36.77L334.42-36.77Q335.59-37.6 337.35-37.6 339.11-37.6 340.08-37.38L340.08-37.38Q341.43-39.06 343.11-39.06L343.11-39.06Q345.62-39.06 345.62-36.43L345.62-36.43 345.62-24.39Q347.99-28.81 353.36-28.81L353.36-28.81Q359.52-28.81 361.2-23.36L361.2-23.36Q361.74-21.63 361.74-19.43L361.74-19.43 361.74-17.8Q361.74-16.65 362.25-16.14L362.25-16.14Q363.01-15.38 364.72-14.6L364.72-14.6Q362.86-13.7 362.42-13.21L362.42-13.21Q361.74-12.45 361.74-11.38L361.74-11.38 361.74-3.74Q362.2-2.22 363.76-2.22L363.76-2.22Q364.59-2.22 365.13-2.64L365.13-2.64Q365.4-2.27 365.4-1.56 365.4-0.85 364.75-0.18 364.11 0.49 362.69 0.49 361.27 0.49 360.08-0.29L360.08-0.29Q358.98 0.49 357.6 0.49 356.22 0.49 355.19-0.24L355.19-0.24Q354.24 0.49 353.06 0.49 351.87 0.49 351.17-0.12 350.46-0.73 350.46-1.88L350.46-1.88Q350.46-2.42 350.82-2.73L350.82-2.73Q351.39-2.29 351.95-2.29L351.95-2.29Q353.02-2.29 353.49-3.49L353.49-3.49 353.49-18.04Q353.49-22.8 351.17-23.54L351.17-23.54Q350.43-23.78 349.58-23.78L349.58-23.78Q347.04-23.78 346.04-21.09L346.04-21.09Q345.72-20.26 345.62-19.29L345.62-19.29 345.62-3.49Q346.09-2.29 347.16-2.29L347.16-2.29Q347.72-2.29 348.29-2.73L348.29-2.73Q348.65-2.42 348.65-1.57 348.65-0.73 347.94-0.12 347.24 0.49 346.04 0.49 344.84 0.49 343.89-0.24L343.89-0.24Q342.89 0.49 341.52 0.49 340.16 0.49 339.01-0.29ZM339.67-8.08L339.67-6.49Q340.77-7.2 340.96-9.59L340.96-9.59Q341.03-10.64 341.06-11.94 341.08-13.23 341.1-13.78 341.11-14.33 341.11-14.6L341.11-14.6 341.11-16.8Q341.11-17.7 341.11-18.85L341.11-18.85 341.06-21.24Q341.01-27.71 340.84-28.44L340.84-28.44Q340.5-29.98 339.67-30.52L339.67-30.52 339.67-22.29Q339.67-17.24 339.56-16.66 339.45-16.09 339.37-15.82L339.37-15.82Q339.15-15.06 337.71-14.58L337.71-14.58Q339.18-14.06 339.37-13.35L339.37-13.35Q339.67-12.18 339.67-8.08L339.67-8.08ZM355.8-15.26L355.8-6.47Q357.03-6.93 357.17-9.67L357.17-9.67Q357.29-12.4 357.29-14.69 357.29-16.97 357.15-18.41 357-19.85 356.67-20.69 356.34-21.53 355.83-21.96 355.32-22.39 354.58-22.75L354.58-22.75Q355.51-20.56 355.66-18.75 355.8-16.94 355.8-15.26L355.8-15.26ZM389.54-7.37L389.54-7.37Q390.08-8.4 391.52-8.4L391.52-8.4Q392.5-8.4 393.03-7.59L393.03-7.59Q393.47-6.96 393.47-6.04 393.47-5.13 393.01-4.2 392.55-3.27 391.74-2.51 390.93-1.76 389.9-1.17 388.86-0.59 387.69-0.2L387.69-0.2Q385.27 0.61 382.66 0.61 380.05 0.61 377.76-0.26 375.48-1.12 373.84-2.69L373.84-2.69Q370.65-5.76 369.94-11.13L369.94-11.13Q369.77-12.33 369.38-12.84L369.38-12.84Q368.64-13.75 366.96-14.58L366.96-14.58Q369.08-15.53 369.67-17.63L369.67-17.63Q369.84-18.21 369.94-18.8L369.94-18.8Q370.55-23.1 374.28-26.12L374.28-26.12Q377.9-29.05 382.36-29.05L382.36-29.05Q387-29.05 390.4-25.78L390.4-25.78Q393.91-22.41 393.91-17.5L393.91-17.5Q393.91-17.33 393.9-17.16 393.89-16.99 393.91-16.85L393.91-16.85Q393.96-16.53 394.3-16.48L394.3-16.48Q394.74-15.92 394.74-15.28L394.74-15.28Q394.74-13.82 393.18-13.55L393.18-13.55Q392.79-13.48 391.96-13.35L391.96-13.35 378.19-11.16 378.19-8.81Q378.19-5.98 379.9-4.32L379.9-4.32Q381.51-2.73 383.98-2.73L383.98-2.73Q386.59-2.73 388.18-3.81L388.18-3.81Q389.66-4.83 389.66-6.49L389.66-6.49Q389.66-6.88 389.54-7.37ZM378.19-14.11L385.27-15.26 385.27-22.09Q385.27-23.71 384.64-24.46L384.64-24.46Q383.51-25.76 382.41-25.76 381.32-25.76 380.58-25.43 379.85-25.1 379.31-24.39L379.31-24.39Q378.19-22.9 378.19-19.75L378.19-19.75 378.19-14.11ZM387.37-15.63L388.88-15.87 388.88-16.63Q388.88-21.17 388.13-22.12L388.13-22.12Q387.78-22.53 387.37-22.73L387.37-22.73 387.37-15.63ZM374.21-6.47L374.21-6.47Q374.55-6.74 374.55-7.08L374.55-7.08Q374.55-7.62 374.33-8.45L374.33-8.45Q373.33-12.28 373.33-13.78 373.33-15.28 373.43-16.13 373.53-16.97 373.7-17.82L373.7-17.82Q373.99-19.48 374.33-20.75L374.33-20.75Q374.55-21.58 374.55-21.88L374.55-21.88Q374.55-22.46 374.21-22.73L374.21-22.73Q373.19-21.51 372.65-19.46 372.11-17.41 371.77-15.84L371.77-15.84Q371.65-15.19 370.33-14.58L370.33-14.58Q371.65-13.96 371.77-13.35L371.77-13.35Q372.67-9.23 373.26-8.11 373.84-6.98 374.21-6.47ZM432.99 0.49L432.99 0.49Q430.5 0.49 429.11-2.2L429.11-2.2Q427.38-0.2 424.47 0.44L424.47 0.44Q423.62 0.61 422.79 0.61L422.79 0.61Q417.66 0.61 414.83-2.64L414.83-2.64Q412.24-5.64 411.93-11.13L411.93-11.13Q411.88-12.21 411.44-12.77L411.44-12.77Q410.7-13.7 408.95-14.55L408.95-14.55Q411.83-15.87 411.95-18.6 412.07-21.34 412.91-23.28 413.76-25.22 415.17-26.46L415.17-26.46Q417.88-28.81 422.74-28.81L422.74-28.81Q425.4-28.81 427.36-27.44L427.36-27.44Q428.01-26.98 428.48-26.37L428.48-26.37 428.48-31.62Q428.48-34.4 426.21-34.4L426.21-34.4Q425.38-34.4 424.84-33.98L424.84-33.98Q424.5-34.45 424.5-34.95 424.5-35.45 424.75-35.91 425.01-36.38 425.55-36.77L425.55-36.77Q426.7-37.6 428.45-37.6 430.21-37.6 431.19-37.38L431.19-37.38Q432.53-39.06 434.22-39.06L434.22-39.06Q436.73-39.06 436.73-36.43L436.73-36.43 436.73-17.8Q436.73-15.94 439.71-14.58L439.71-14.58Q436.73-13.23 436.73-11.38L436.73-11.38 436.73-4.05Q437.44-2.22 438.76-2.22L438.76-2.22Q439.59-2.22 440.12-2.64L440.12-2.64Q440.47-2.17 440.47-1.48 440.47-0.78 439.77-0.15 439.07 0.49 437.68 0.49 436.29 0.49 435.09-0.29L435.09-0.29Q434.04 0.49 432.99 0.49ZM430.82-30.52L430.82-6.47Q432.04-6.93 432.14-9.38L432.14-9.38Q432.16-9.94 432.18-10.75 432.19-11.57 432.21-12.57 432.24-13.57 432.24-14.6L432.24-14.6 432.29-16.55Q432.29-17.5 432.3-18.23 432.31-18.95 432.31-19.36L432.31-19.36 432.31-19.73Q432.31-19.8 432.3-20.42 432.29-21.04 432.27-21.96 432.26-22.88 432.24-23.93L432.24-23.93 432.19-25.98Q432.14-28.22 432.02-28.83L432.02-28.83Q431.82-30.05 430.82-30.52L430.82-30.52ZM424.08-25.24L424.08-25.24Q420.18-25.24 420.18-19.51L420.18-19.51 420.18-8.81Q420.18-4.35 423.13-3.27L423.13-3.27Q423.96-2.95 424.78-2.95 425.6-2.95 426.27-3.28 426.94-3.61 427.43-4.15L427.43-4.15Q428.48-5.35 428.48-7.01L428.48-7.01 428.48-19.51Q428.48-24 425.74-24.95L425.74-24.95Q424.94-25.24 424.08-25.24ZM416.2-6.47L416.2-6.47Q416.54-6.74 416.54-7.08L416.54-7.08Q416.54-7.62 416.32-8.45L416.32-8.45Q415.32-12.28 415.32-13.76 415.32-15.23 415.42-16.09 415.51-16.94 415.69-17.77L415.69-17.77Q416-19.53 416.32-20.75L416.32-20.75Q416.54-21.58 416.54-21.88L416.54-21.88Q416.54-22.46 416.2-22.73L416.2-22.73Q415.17-21.51 414.64-19.43 414.1-17.36 413.76-15.8L413.76-15.8Q413.63-15.16 412.32-14.55L412.32-14.55Q413.63-13.94 413.76-13.31L413.76-13.31Q414.66-9.18 415.25-8.08 415.83-6.98 416.2-6.47ZM460.56-2.32L460.56-2.32Q458.33 0.61 453.89 0.61L453.89 0.61Q448.47 0.61 445.76-2.64L445.76-2.64Q444.59-4.03 444.15-5.74L444.15-5.74Q443.91-6.76 443.29-7.31 442.68-7.86 441.78-8.3L441.78-8.3Q443.54-9.11 444.3-11.33L444.3-11.33Q445.1-13.67 446.98-14.72L446.98-14.72Q449.01-15.82 451.45-15.88 453.89-15.94 455.06-16.04 456.23-16.14 457.14-16.36L457.14-16.36Q458.82-16.75 459.77-17.8L459.77-17.8 459.77-21.46Q459.77-23.88 458.79-25 457.8-26.12 455.78-26.12 453.77-26.12 452.8-25.38 451.84-24.63 451.84-23.39L451.84-23.39Q451.84-21.48 453.79-21.53L453.79-21.53Q453.4-19.63 451.74-19.63L451.74-19.63Q451.25-19.63 450.79-19.8L450.79-19.8 450.79-19.73Q450.79-19.09 451.38-18.92L451.38-18.92Q450.77-17.99 449.33-18.02 447.88-18.04 447.08-19.56L447.08-19.56Q446.71-19.46 446.24-19.46 445.76-19.46 445.19-19.78 444.61-20.09 444.27-20.65L444.27-20.65Q445.49-21.39 445.76-22.92L445.76-22.92Q446.05-24.8 448.76-26.73L448.76-26.73Q452.04-29.05 457.11-29.05L457.11-29.05Q465.54-29.05 467.39-23.88L467.39-23.88Q468-22.14 468-19.78L468-19.78 468-17.8Q468-16.6 468.6-15.84 469.2-15.09 470.64-14.6L470.64-14.6Q469.1-13.89 468.66-13.33L468.66-13.33Q468-12.48 468-11.38L468-11.38 468-4.05Q468.71-2.22 470.03-2.22L470.03-2.22Q470.86-2.22 471.4-2.64L471.4-2.64Q471.74-2.17 471.74-1.48 471.74-0.78 471.04-0.15 470.35 0.49 468.95 0.49 467.56 0.49 466.37-0.29L466.37-0.29Q465.32 0.49 464.5 0.49 463.68 0.49 463.08 0.33 462.48 0.17 461.97-0.17L461.97-0.17Q460.82-0.93 460.56-2.32ZM462.09-22.73L462.09-6.47Q463.51-7.03 463.58-11.87L463.58-11.87Q463.58-12.89 463.58-14.21 463.58-15.53 463.57-16.47 463.56-17.41 463.53-18.26L463.53-18.26Q463.44-21.34 462.97-21.94 462.51-22.53 462.09-22.73L462.09-22.73ZM453.09-8.2L453.09-8.2Q453.09-7.18 453.3-6.2 453.52-5.22 453.96-4.49L453.96-4.49Q454.94-2.95 456.72-2.95L456.72-2.95Q458.07-2.95 458.94-4.05L458.94-4.05Q459.77-5.13 459.77-6.81L459.77-6.81 459.77-14.77Q458.21-13.87 455.77-13.53L455.77-13.53Q453.09-13.11 453.09-8.2ZM449.42-2.71L449.42-2.71Q449.67-2.88 449.67-3.15L449.67-3.15Q449.67-3.52 449.33-4.17L449.33-4.17Q448.1-6.42 448.1-7.86 448.1-9.3 448.21-9.94 448.32-10.57 448.51-11.02 448.69-11.47 448.92-11.82 449.15-12.16 449.33-12.43L449.33-12.43Q449.64-12.99 449.64-13.2 449.64-13.4 449.42-13.55L449.42-13.55Q448.42-13.09 447.96-12.45L447.96-12.45Q447.13-11.33 446.74-9.55L446.74-9.55Q446.64-9.03 445.03-8.3L445.03-8.3Q446.59-7.59 446.74-7.06L446.74-7.06Q447.57-4.15 449.42-2.71ZM503.42-25.17L503.42-25.17Q502.89-25.51 501.72-25.51L501.72-25.51Q499.37-25.51 498.18-22.34L498.18-22.34 497.42-20.21Q496.59-17.9 496.58-17.04 496.56-16.19 496.87-15.66 497.17-15.14 498.25-14.58L498.25-14.58Q495.61-13.84 494.66-12.11L494.66-12.11Q494.37-11.57 494.15-10.99L494.15-10.99 490.09 0.02Q487.73 6.84 485.7 9.25L485.7 9.25Q483.84 11.47 481.06 11.47L481.06 11.47Q478.94 11.47 477.06 10.11L477.06 10.11Q474.91 8.57 474.91 6.49L474.91 6.49Q474.91 5.2 475.59 4.53 476.28 3.86 476.85 3.86 477.42 3.86 477.64 3.87 477.86 3.88 478.08 3.96L478.08 3.96Q478.52 4.15 478.91 4.83L478.91 4.83Q478.4 5.81 479.57 6.98L479.57 6.98Q480.67 8.13 481.63 8.13 482.6 8.13 483.25 7.76 483.89 7.4 484.41 6.64L484.41 6.64Q485.53 4.98 485.53 1.88L485.53 1.88Q485.53 0.2 484.63-1.83L484.63-1.83Q484.38-2.51 484.04-3.27L484.04-3.27 480.57-11.08Q480.01-12.33 478.88-13.29 477.74-14.26 476.32-14.58L476.32-14.58Q478.01-15.43 478.01-16.82L478.01-16.82Q478.01-17.82 477.2-19.78L477.2-19.78 475.76-23.24Q475.13-24.66 474.71-25.02L474.71-25.02Q473.98-25.61 473.02-25.61 472.05-25.61 471.52-25.2L471.52-25.2Q471.22-25.49 471.21-26.05 471.2-26.61 471.34-26.99 471.49-27.37 471.83-27.66L471.83-27.66Q472.56-28.32 473.94-28.32 475.32-28.32 476.54-27.44L476.54-27.44Q477.55-28.32 478.99-28.32 480.43-28.32 481.52-27.51L481.52-27.51Q482.62-28.32 483.99-28.32 485.36-28.32 486.15-27.67 486.94-27.03 486.97-26.39L486.97-26.39Q486.99-25.44 486.65-25.1L486.65-25.1Q486.07-25.54 485.43-25.54 484.8-25.54 484.39-25.17 483.99-24.8 484.04-23.97L484.04-23.97 489.68-8.74 495.03-24.39Q494.76-25.63 493.24-25.63L493.24-25.63Q492.29-25.63 491.44-25.17L491.44-25.17Q491.19-25.63 491.21-26.37 491.22-27.1 491.89-27.71 492.56-28.32 493.72-28.32 494.88-28.32 495.71-27.54L495.71-27.54Q496.59-28.32 497.69-28.32 498.79-28.32 499.69-27.64L499.69-27.64Q500.52-28.32 501.53-28.32 502.55-28.32 503.14-27.73 503.74-27.15 503.72-26.51L503.72-26.51Q503.67-25.54 503.42-25.17ZM484.41-12.08L479.91-22.73Q479.35-22.36 479.36-21.8 479.38-21.24 479.41-20.94 479.45-20.63 479.55-20.21L479.55-20.21Q479.77-19.43 480.44-17.91 481.11-16.38 481.15-16 481.18-15.63 480.89-15.17 480.6-14.72 480.18-14.58L480.18-14.58Q481.74-14.28 482.11-13.48L482.11-13.48Q482.28-13.13 482.6-12.4L482.6-12.4 484.26-8.69Q484.75-7.57 485.28-6.47L485.28-6.47Q486.29-7.69 484.41-12.08L484.41-12.08Z" opacity="1" transform="matrix(1,0,0,1,0,0)" fill="#8abe53" class="undefined-text-1" data-fill-palette-color="secondary" id="text-1"></path></svg></g></svg></g></svg></g></svg></g><g transform="matrix(1,0,0,1,75.54432,0)"><svg viewBox="0 0 244.43135999999998 219.61361506102148" height="219.61361506102148" width="244.43135999999998"><g><svg xmlns="http://www.w3.org/2000/svg" xmlns:xlink="http://www.w3.org/1999/xlink" version="1.1" x="8" y="0" viewBox="182.1300048828125 10.387999534606934 82.40597534179688 79.2249984741211" enable-background="new 173.333 0 100 100" xml:space="preserve" height="219.61361506102148" width="228.43135999999998" class="icon-icon-0" data-fill-palette-color="accent" id="icon-0"><g fill="#8abe53" data-fill-palette-color="accent"><polygon fill="none" points="248.183,39.275 248.183,39.281 248.186,39.278  "></polygon><polygon fill="none" points="248.183,66.602 248.183,66.621 248.192,66.611  "></polygon><path fill="none" d="M249.378 23.6c-1.979 0-3.59 1.61-3.59 3.589 0 1.979 1.61 3.59 3.59 3.59 1.979 0 3.589-1.61 3.589-3.59C252.967 25.21 251.356 23.6 249.378 23.6z"></path><g fill="#8abe53" data-fill-palette-color="accent"><rect x="256.61" y="12.991" transform="matrix(0.7071 0.7071 -0.7071 0.7071 87.2597 -177.6811)" width="3" height="7" fill="#8abe53" data-fill-palette-color="accent"></rect><rect x="248.183" y="10.388" width="3" height="6.891" fill="#8abe53" data-fill-palette-color="accent"></rect><circle cx="212.062" cy="27.189" r="4.3" fill="#8abe53" data-fill-palette-color="accent"></circle><rect x="237.611" y="14.991" transform="matrix(0.7072 0.707 -0.707 0.7072 82.2628 -165.6453)" width="7" height="3" fill="#8abe53" data-fill-palette-color="accent"></rect><path d="M257.87 47.278c-3.683 0-6.667 3-6.667 3s2.984 3 6.667 3c3.682 0 6.666-3 6.666-3S261.552 47.278 257.87 47.278z" fill="#8abe53" data-fill-palette-color="accent"></path><polygon points="235.766,10.388 231.306,10.388 217.219,33.438 188.808,33.441 188.808,59.278 192.183,59.278 192.183,37.177     203.443,55.197 182.13,89.612 186.847,89.612 208.725,54.859 221.183,54.859 221.183,89.612 225.473,89.612 225.473,50     211.145,50   " fill="#8abe53" data-fill-palette-color="accent"></polygon><path d="M255.967 27.188c0-3.633-2.956-6.589-6.589-6.589-3.634 0-6.59 2.956-6.59 6.589 0 3.225 2.33 5.911 5.395 6.476v5.611c0 0.001 0.003 0.003 0.003 0.003l-0.003 0.003v21.228c-0.104-0.103-3.04-2.99-6.656-2.99-3.683 0-6.667 3-6.667 3s2.984 3 6.667 3c3.616 0 6.553-2.888 6.656-2.99v6.073c0.002 0.002 0.01 0.01 0.01 0.01s-0.008 0.008-0.01 0.01v22.991h3V33.521C253.939 32.733 255.967 30.195 255.967 27.188zM249.378 30.778c-1.979 0-3.59-1.61-3.59-3.59 0-1.979 1.61-3.589 3.59-3.589 1.979 0 3.589 1.61 3.589 3.589C252.967 29.168 251.356 30.778 249.378 30.778z" fill="#8abe53" data-fill-palette-color="accent"></path><path d="M241.52 36.278c-3.683 0-6.667 3-6.667 3s2.984 3 6.667 3c3.662 0 6.632-2.965 6.663-2.997v-0.006C248.151 39.244 245.182 36.278 241.52 36.278z" fill="#8abe53" data-fill-palette-color="accent"></path></g></g></svg></g></svg></g><g></g></svg></g><defs></defs></svg><rect width="234.8405138601148" height="247.2" fill="none" stroke="none" visibility="hidden"></rect></g></svg></g></svg>